<svg width="1661" height="1622" xmlns="http://www.w3.org/2000/svg" xmlns:xlink="http://www.w3.org/1999/xlink" xml:space="preserve" overflow="hidden"><g transform="translate(-1377 -439)"><path d="M1591.38 1130.85C1663.83 800.063 1997.06 589.281 2335.68 660.056 2579.24 710.962 2768.86 897.872 2818.78 1136.25" stroke="#FFFFFF" stroke-width="57.2917" stroke-miterlimit="8" fill="none" fill-rule="evenodd"/><text fill="#FFFFFF" font-family="UD Digi Kyokasho NK-R,UD Digi Kyokasho NK-R_MSFontService,sans-serif" font-weight="700" font-size="458" transform="matrix(1 0 0 1 2440.75 1377)">A</text><path d="M1439.5 1250C1439.5 834.958 1782.23 498.5 2205 498.5 2627.77 498.5 2970.5 834.958 2970.5 1250 2970.5 1665.04 2627.77 2001.5 2205 2001.5 1782.23 2001.5 1439.5 1665.04 1439.5 1250Z" stroke="#FFFFFF" stroke-width="119.167" stroke-miterlimit="8" fill="none" fill-rule="evenodd"/><path d="M2821.1 1345.92C2772.06 1667.86 2457.81 1891.04 2119.2 1844.42 1853.11 1807.78 1642.25 1612.12 1597.24 1360.1" stroke="#FFFFFF" stroke-width="57.2917" stroke-miterlimit="8" fill="none" fill-rule="evenodd"/><path d="M1548 1245.5C1548 1225.89 1563 1210 1581.5 1210 1600 1210 1615 1225.89 1615 1245.5 1615 1265.11 1600 1281 1581.5 1281 1563 1281 1548 1265.11 1548 1245.5Z" fill="#F2F2F2" fill-rule="evenodd"/><path d="M2808 1249C2808 1229.12 2823 1213 2841.5 1213 2860 1213 2875 1229.12 2875 1249 2875 1268.88 2860 1285 2841.5 1285 2823 1285 2808 1268.88 2808 1249Z" fill="#F2F2F2" fill-rule="evenodd"/><path d="M2013 909.5C2013 887.685 2030.91 870 2053 870 2075.09 870 2093 887.685 2093 909.5 2093 931.315 2075.09 949 2053 949 2030.91 949 2013 931.315 2013 909.5Z" fill="#F2F2F2" fill-rule="evenodd"/><path d="M2167 1644.5C2167 1623.24 2184.68 1606 2206.5 1606 2228.32 1606 2246 1623.24 2246 1644.5 2246 1665.76 2228.32 1683 2206.5 1683 2184.68 1683 2167 1665.76 2167 1644.5Z" fill="#F2F2F2" fill-rule="evenodd"/><path d="M2833.5 1139.5 2958.86 1139.5" stroke="#F2F2F2" stroke-width="55" stroke-miterlimit="8" fill="none" fill-rule="evenodd"/><path d="M1448.5 1139.5 1606.06 1139.5" stroke="#F2F2F2" stroke-width="55" stroke-miterlimit="8" fill="none" fill-rule="evenodd"/><path d="M1448.5 1350.5 1606.06 1350.5" stroke="#F2F2F2" stroke-width="55" stroke-miterlimit="8" fill="none" fill-rule="evenodd"/><path d="M2808.5 1350.5 2966.06 1350.5" stroke="#F2F2F2" stroke-width="55" stroke-miterlimit="8" fill="none" fill-rule="evenodd"/><path d="M0 0 0.000360892 165.087" stroke="#F2F2F2" stroke-width="55" stroke-miterlimit="8" fill="none" fill-rule="evenodd" transform="matrix(1 0 0 -1 2214.5 1994.59)"/><path d="M0 0 0.000360892 165.087" stroke="#F2F2F2" stroke-width="55" stroke-miterlimit="8" fill="none" fill-rule="evenodd" transform="matrix(1 0 0 -1 2214.5 643.587)"/><path d="M1576.19 1366.8C1569.64 1345.96 1575.84 1325.45 1590.03 1320.99 1604.22 1316.53 1621.04 1329.82 1627.58 1350.66 1634.13 1371.5 1627.93 1392.01 1613.74 1396.47 1599.55 1400.93 1582.74 1387.65 1576.19 1366.8Z" fill="#F2F2F2" fill-rule="evenodd"/><path d="M1580.42 1112.65C1587.15 1084.86 1604.33 1065.17 1618.79 1068.67 1633.24 1072.17 1639.51 1097.54 1632.77 1125.33 1626.04 1153.13 1608.86 1172.82 1594.41 1169.31 1579.95 1165.81 1573.68 1140.44 1580.42 1112.65Z" fill="#F2F2F2" fill-rule="evenodd"/><path d="M2794.58 1142.42C2789.31 1123.43 2796.66 1104.81 2810.99 1100.84 2825.33 1096.86 2841.22 1109.02 2846.49 1128.01 2851.76 1147 2844.41 1165.61 2830.07 1169.59 2815.74 1173.57 2799.85 1161.4 2794.58 1142.42Z" fill="#F2F2F2" fill-rule="evenodd"/><path d="M2793.31 1347.79C2798.6 1328.81 2814.52 1316.67 2828.84 1320.67 2843.17 1324.67 2850.49 1343.29 2845.19 1362.27 2839.9 1381.25 2823.99 1393.39 2809.66 1389.39 2795.33 1385.39 2788.01 1366.76 2793.31 1347.79Z" fill="#F2F2F2" fill-rule="evenodd"/><text fill="#FFFFFF" font-family="UD Digi Kyokasho NP-B,UD Digi Kyokasho NP-B_MSFontService,sans-serif" font-weight="700" font-size="165" transform="matrix(1 0 0 1 2129.08 962)">L</text><text fill="#FFFFFF" font-family="UD Digi Kyokasho NP-B,UD Digi Kyokasho NP-B_MSFontService,sans-serif" font-weight="700" font-size="165" transform="matrix(1 0 0 1 2251.64 964)">A</text><text fill="#FFFFFF" font-family="UD Digi Kyokasho NK-R,UD Digi Kyokasho NK-R_MSFontService,sans-serif" font-weight="700" font-size="458" transform="matrix(1 0 0 1 1923.71 1377)">A</text><text fill="#FFFFFF" font-family="UD Digi Kyokasho NK-R,UD Digi Kyokasho NK-R_MSFontService,sans-serif" font-weight="700" font-size="458" transform="matrix(1 0 0 1 2186.92 1372)">T</text><text fill="#FFFFFF" font-family="UD Digi Kyokasho N-R,UD Digi Kyokasho N-R_MSFontService,sans-serif" font-weight="700" font-size="481" transform="matrix(1 0 0 1 1666.63 1379)">D</text><text fill="#FFFFFF" font-family="UD Digi Kyokasho NP-B,UD Digi Kyokasho NP-B_MSFontService,sans-serif" font-weight="700" font-size="165" transform="matrix(1 0 0 1 1745.57 1550)">PROJECT</text></g></svg>